<?xml version="1.0" encoding="UTF-8" standalone="no"?>
<!-- Created with Inkscape (http://www.inkscape.org/) -->

<svg
   width="85.241341mm"
   height="55.288746mm"
   viewBox="0 0 85.241341 55.288746"
   version="1.1"
   id="svg1"
   xml:space="preserve"
   inkscape:export-filename="logo.jpg"
   inkscape:export-xdpi="297.97748"
   inkscape:export-ydpi="297.97748"
   sodipodi:docname="logo.svg"
   xmlns:inkscape="http://www.inkscape.org/namespaces/inkscape"
   xmlns:sodipodi="http://sodipodi.sourceforge.net/DTD/sodipodi-0.dtd"
   xmlns="http://www.w3.org/2000/svg"
   xmlns:svg="http://www.w3.org/2000/svg"><sodipodi:namedview
     id="namedview1"
     pagecolor="#ffffff"
     bordercolor="#000000"
     borderopacity="0.25"
     inkscape:showpageshadow="2"
     inkscape:pageopacity="0.0"
     inkscape:pagecheckerboard="0"
     inkscape:deskcolor="#d1d1d1"
     inkscape:document-units="mm"
     inkscape:zoom="13.603066"
     inkscape:cx="136.80739"
     inkscape:cy="149.48835"
     inkscape:window-width="2400"
     inkscape:window-height="1261"
     inkscape:window-x="-9"
     inkscape:window-y="-8"
     inkscape:window-maximized="1"
     inkscape:current-layer="layer-MC0"><inkscape:page
       x="-3.8211556e-10"
       y="6.4866623e-09"
       width="85.241341"
       height="55.288746"
       id="page3"
       margin="0"
       bleed="0" /></sodipodi:namedview><defs
     id="defs1"><clipPath
       clipPathUnits="userSpaceOnUse"
       id="clipPath3"><path
         d="M 0,172.913 H 257.953 V 0 H 0 Z"
         transform="translate(-157.5021,-59.363904)"
         id="path3" /></clipPath><clipPath
       clipPathUnits="userSpaceOnUse"
       id="clipPath5"><path
         d="M 0,172.913 H 257.953 V 0 H 0 Z"
         transform="translate(-94.006005,-57.304899)"
         id="path5" /></clipPath><clipPath
       clipPathUnits="userSpaceOnUse"
       id="clipPath7"><path
         d="M 0,172.913 H 257.953 V 0 H 0 Z"
         transform="translate(-110.8724,-49.894599)"
         id="path7" /></clipPath><clipPath
       clipPathUnits="userSpaceOnUse"
       id="clipPath9"><path
         d="M 0,172.913 H 257.953 V 0 H 0 Z"
         transform="translate(-128.0882,-49.982799)"
         id="path9" /></clipPath><clipPath
       clipPathUnits="userSpaceOnUse"
       id="clipPath11"><path
         d="M 0,172.913 H 257.953 V 0 H 0 Z"
         transform="translate(-151.1151,-49.894599)"
         id="path11" /></clipPath><clipPath
       clipPathUnits="userSpaceOnUse"
       id="clipPath13"><path
         d="M 0,172.913 H 257.953 V 0 H 0 Z"
         transform="translate(-119.05241,-63.711204)"
         id="path13" /></clipPath><clipPath
       clipPathUnits="userSpaceOnUse"
       id="clipPath15"><path
         d="M 0,172.913 H 257.953 V 0 H 0 Z"
         transform="translate(-123.4793,-61.246299)"
         id="path15" /></clipPath><clipPath
       clipPathUnits="userSpaceOnUse"
       id="clipPath17"><path
         d="M 0,172.913 H 257.953 V 0 H 0 Z"
         transform="translate(-150.2193,-64.125204)"
         id="path17" /></clipPath><clipPath
       clipPathUnits="userSpaceOnUse"
       id="clipPath19"><path
         d="M 0,172.913 H 257.953 V 0 H 0 Z"
         transform="translate(-72.291402,-48.881499)"
         id="path19" /></clipPath><clipPath
       clipPathUnits="userSpaceOnUse"
       id="clipPath21"><path
         d="M 0,172.913 H 257.953 V 0 H 0 Z"
         transform="translate(-158.63411,-60.885302)"
         id="path21" /></clipPath><clipPath
       clipPathUnits="userSpaceOnUse"
       id="clipPath23"><path
         d="M 0,172.913 H 257.953 V 0 H 0 Z"
         transform="translate(-156.24041,-60.359604)"
         id="path23" /></clipPath><clipPath
       clipPathUnits="userSpaceOnUse"
       id="clipPath25"><path
         d="M 0,172.913 H 257.953 V 0 H 0 Z"
         transform="translate(-173.33021,-48.712299)"
         id="path25" /></clipPath><clipPath
       clipPathUnits="userSpaceOnUse"
       id="clipPath27"><path
         d="M 0,172.913 H 257.953 V 0 H 0 Z"
         transform="translate(-72.291402,-48.881499)"
         id="path27" /></clipPath><clipPath
       clipPathUnits="userSpaceOnUse"
       id="clipPath29"><path
         d="M 0,172.913 H 257.953 V 0 H 0 Z"
         transform="translate(-156.5027,-60.303002)"
         id="path29" /></clipPath><clipPath
       clipPathUnits="userSpaceOnUse"
       id="clipPath31"><path
         d="M 0,172.913 H 257.953 V 0 H 0 Z"
         transform="translate(-183.77441,-52.427904)"
         id="path31" /></clipPath><clipPath
       clipPathUnits="userSpaceOnUse"
       id="clipPath33"><path
         d="M 0,172.913 H 257.953 V 0 H 0 Z"
         transform="translate(-171.0027,-47.785899)"
         id="path33" /></clipPath><clipPath
       clipPathUnits="userSpaceOnUse"
       id="clipPath35"><path
         d="M 0,172.913 H 257.953 V 0 H 0 Z"
         transform="translate(-94.694602,-58.114899)"
         id="path35" /></clipPath><clipPath
       clipPathUnits="userSpaceOnUse"
       id="clipPath37"><path
         d="M 0,172.913 H 257.953 V 0 H 0 Z"
         transform="translate(-112.1061,-103.6382)"
         id="path37" /></clipPath><clipPath
       clipPathUnits="userSpaceOnUse"
       id="clipPath39"><path
         d="M 0,172.913 H 257.953 V 0 H 0 Z"
         transform="translate(-126.2871,-83.4649)"
         id="path39" /></clipPath><clipPath
       clipPathUnits="userSpaceOnUse"
       id="clipPath41"><path
         d="M 0,172.913 H 257.953 V 0 H 0 Z"
         transform="translate(-131.33051,-124.2857)"
         id="path41" /></clipPath><clipPath
       clipPathUnits="userSpaceOnUse"
       id="clipPath43"><path
         d="M 0,172.913 H 257.953 V 0 H 0 Z"
         transform="translate(-136.5167,-83.4649)"
         id="path43" /></clipPath><clipPath
       clipPathUnits="userSpaceOnUse"
       id="clipPath45"><path
         d="M 0,172.913 H 257.953 V 0 H 0 Z"
         transform="translate(-123.1049,-93.682202)"
         id="path45" /></clipPath><clipPath
       clipPathUnits="userSpaceOnUse"
       id="clipPath47"><path
         d="M 0,172.913 H 257.953 V 0 H 0 Z"
         transform="translate(-118.31501,-96.966803)"
         id="path47" /></clipPath><clipPath
       clipPathUnits="userSpaceOnUse"
       id="clipPath49"><path
         d="M 0,172.913 H 257.953 V 0 H 0 Z"
         transform="translate(-124.9868,-101.5884)"
         id="path49" /></clipPath><clipPath
       clipPathUnits="userSpaceOnUse"
       id="clipPath51"><path
         d="M 0,172.913 H 257.953 V 0 H 0 Z"
         transform="translate(-129.0981,-100.0765)"
         id="path51" /></clipPath><clipPath
       clipPathUnits="userSpaceOnUse"
       id="clipPath53"><path
         d="M 0,172.913 H 257.953 V 0 H 0 Z"
         transform="translate(-120.85631,-100.0765)"
         id="path53" /></clipPath><clipPath
       clipPathUnits="userSpaceOnUse"
       id="clipPath55"><path
         d="M 0,172.913 H 257.953 V 0 H 0 Z"
         transform="translate(-131.2635,-97.053503)"
         id="path55" /></clipPath><clipPath
       clipPathUnits="userSpaceOnUse"
       id="clipPath57"><path
         d="M 0,172.913 H 257.953 V 0 H 0 Z"
         transform="translate(-112.1061,-95.956802)"
         id="path57" /></clipPath><clipPath
       clipPathUnits="userSpaceOnUse"
       id="clipPath59"><path
         d="M 0,172.913 H 257.953 V 0 H 0 Z"
         transform="translate(-141.5222,-100.9812)"
         id="path59" /></clipPath><clipPath
       clipPathUnits="userSpaceOnUse"
       id="clipPath61"><path
         d="M 0,172.913 H 257.953 V 0 H 0 Z"
         transform="translate(-139.3131,-100.1322)"
         id="path61" /></clipPath><clipPath
       clipPathUnits="userSpaceOnUse"
       id="clipPath63"><path
         d="M 0,172.913 H 257.953 V 0 H 0 Z"
         transform="translate(-139.1477,-100.5166)"
         id="path63" /></clipPath><clipPath
       clipPathUnits="userSpaceOnUse"
       id="clipPath65"><path
         d="M 0,172.913 H 257.953 V 0 H 0 Z"
         transform="translate(-139.215,-100.1979)"
         id="path65" /></clipPath></defs><g
     id="layer-MC0"
     inkscape:groupmode="layer"
     inkscape:label="Calque 1"
     transform="matrix(0.26458333,0,0,0.26458334,0.06596004,0.14426351)"><path
       id="path2"
       d="m 0,0 c -2.287,2.455 -6.422,4.102 -11.158,4.102 -4.992,0 -9.329,-1.823 -11.524,-4.501 -0.078,-0.095 -0.136,-0.198 -0.208,-0.295"
       style="fill:none;stroke:#ccaa97;stroke-width:0.103;stroke-linecap:butt;stroke-linejoin:miter;stroke-miterlimit:10;stroke-dasharray:none;stroke-opacity:1"
       transform="matrix(1.3333333,0,0,-1.3333333,198.66421,140.06021)"
       clip-path="url(#clipPath3)" /><path
       id="path4"
       d="m 0,0 c 0.107,0.149 0.191,0.307 0.306,0.453 3.233,4.106 9.619,6.901 16.969,6.901 6.974,0 14.529,-3.616 17.896,-7.381"
       style="fill:none;stroke:#ccaa97;stroke-width:0.103;stroke-linecap:butt;stroke-linejoin:miter;stroke-miterlimit:10;stroke-dasharray:none;stroke-opacity:1"
       transform="matrix(1.3333333,0,0,-1.3333333,114.00275,142.80555)"
       clip-path="url(#clipPath5)" /><path
       id="path6"
       d="m 0,0 c -0.569,0.5 -1.069,1.103 -1.501,1.807 -0.228,0.342 -0.433,0.667 -0.614,0.974 -0.183,0.307 -0.33,0.596 -0.444,0.87 -0.114,0.18 -0.193,0.334 -0.238,0.46 -0.046,0.125 -0.091,0.209 -0.137,0.256 0,0.022 -0.012,0.033 -0.034,0.033 v 0.035 l -7.744,18.593 h -0.512 l -8.393,-21.902 0.512,-0.921 c -0.068,0.204 -0.057,0.42 0.034,0.648 l 2.764,7.3 3.855,10.065 4.196,-10.065 2.457,-5.867 c 0.909,-2.002 2.49,-3.049 4.741,-3.139 H 1.774 C 1.16,-0.831 0.568,-0.546 0,0"
       style="fill:#ccaa97;fill-opacity:1;fill-rule:nonzero;stroke:none"
       transform="matrix(1.3333333,0,0,-1.3333333,136.49128,152.68595)"
       clip-path="url(#clipPath7)" /><path
       id="path8"
       d="m 0,0 c -0.284,-0.576 -0.871,-0.941 -1.513,-0.941 h -11.802 c -0.357,0 -0.593,0.369 -0.444,0.692 l 10.211,22.155 c 0.149,0.324 -0.087,0.693 -0.443,0.693 h -3.161 c -0.978,0 -1.866,-0.216 -2.662,-0.648 -0.818,-0.432 -1.557,-0.921 -2.216,-1.467 -0.638,-0.569 -1.138,-1.07 -1.502,-1.502 l -0.546,-0.647 1.588,4.286 c 0.071,0.191 0.254,0.318 0.458,0.318 H 0.065 c 0.357,0 0.593,-0.37 0.442,-0.694 L -9.797,0.128 c -0.151,-0.324 0.085,-0.695 0.443,-0.695 h 4.318 c 0.999,0 1.989,0.354 2.967,1.058 0.5,0.364 0.972,0.745 1.416,1.144 0.444,0.397 0.858,0.823 1.245,1.279 0.751,0.886 0.562,0.64 1.017,1.301"
       style="fill:#ccaa97;fill-opacity:1;fill-rule:nonzero;stroke:none"
       transform="matrix(1.3333333,0,0,-1.3333333,159.44568,152.56835)"
       clip-path="url(#clipPath9)" /><path
       id="path10"
       d="m 0,0 c -0.569,0.5 -1.07,1.103 -1.502,1.807 -0.227,0.342 -0.432,0.667 -0.614,0.974 -0.182,0.307 -0.329,0.596 -0.443,0.87 -0.115,0.18 -0.193,0.334 -0.24,0.46 -0.045,0.125 -0.09,0.209 -0.135,0.256 0,0.022 -0.012,0.033 -0.035,0.033 v 0.035 l -7.743,18.593 h -0.513 L -19.617,1.126 c -0.16,-0.387 -0.375,-0.717 -0.649,-0.99 -0.25,-0.25 -0.512,-0.455 -0.784,-0.614 -0.319,-0.16 -0.614,-0.285 -0.888,-0.375 h 4.334 c -0.569,0.227 -0.956,0.42 -1.16,0.579 -0.137,0.115 -0.251,0.274 -0.342,0.479 -0.068,0.204 -0.057,0.42 0.035,0.648 l 2.763,7.3 3.547,9.262 c 0.111,0.29 0.519,0.296 0.639,0.009 L -8.257,8.153 -5.801,2.286 C -4.89,0.284 -3.31,-0.763 -1.058,-0.853 H 1.773 C 1.159,-0.831 0.568,-0.546 0,0"
       style="fill:#ccaa97;fill-opacity:1;fill-rule:nonzero;stroke:none"
       transform="matrix(1.3333333,0,0,-1.3333333,190.14821,152.68595)"
       clip-path="url(#clipPath11)" /><path
       id="path12"
       d="m 0,0 -0.39,-0.975 1.422,-0.516 0.466,1.012 z"
       style="fill:#1e3557;fill-opacity:1;fill-rule:nonzero;stroke:none"
       transform="matrix(1.3333333,0,0,-1.3333333,147.39795,134.26381)"
       clip-path="url(#clipPath13)" /><path
       id="path14"
       d="M 0,0 0.256,0.548 0.531,0.395 0.201,-0.152 Z"
       style="fill:#1e3557;fill-opacity:1;fill-rule:nonzero;stroke:none"
       transform="matrix(1.3333333,0,0,-1.3333333,153.30048,137.55035)"
       clip-path="url(#clipPath15)" /><path
       id="path16"
       d="m 0,0 c -0.302,0.059 -0.516,0.323 -0.515,0.631 l 0.016,4.935 c 0,0 0.195,3.232 -3.806,2.697 0,0 -0.374,0.275 0,0.428 h 9.524 c 0,0 9.066,0.463 9.252,-5.236 0,0 0.07,-4.138 -2.259,-5.686 -0.055,-0.036 -0.113,-0.064 -0.175,-0.085 -0.393,-0.132 -2.097,-0.667 -6.106,-1.425 0,0 6.365,1.299 4.75,7.589 0,0 -0.191,4.278 -6.909,4.391 C 3.422,8.245 3.128,7.958 3.119,7.608 L 2.951,0.66 C 2.947,-0.034 2.608,-0.617 1.92,-0.439 1.377,-0.298 0.621,-0.12 0,0"
       style="fill:#ccaa97;fill-opacity:1;fill-rule:nonzero;stroke:none"
       transform="matrix(1.3333333,0,0,-1.3333333,188.95381,133.71181)"
       clip-path="url(#clipPath17)" /><path
       id="path18"
       d="m 0,0 c 0.273,0.045 1.361,0.114 1.588,0.205 0.227,0.068 0.467,0.204 0.717,0.409 0.205,0.159 0.397,0.432 0.58,0.819 0.159,0.318 0.239,0.773 0.239,1.364 v 18.287 c 0,0.591 -0.08,1.046 -0.239,1.364 -0.183,0.364 -0.375,0.637 -0.58,0.819 -0.205,0.182 -0.444,0.329 -0.717,0.444 -0.296,0.09 -0.545,0.147 -0.75,0.17 H 6.637 V 1.641 c 0,-0.68 0.552,-1.232 1.232,-1.232"
       style="fill:#ccaa97;fill-opacity:1;fill-rule:nonzero;stroke:none"
       transform="matrix(1.3333333,0,0,-1.3333333,85.049947,154.03675)"
       clip-path="url(#clipPath19)" /><path
       id="path20"
       d="M 0,0 C 0,0 4.114,-0.273 5.239,2.764"
       style="fill:#ccaa97;fill-opacity:1;fill-rule:nonzero;stroke:none"
       transform="matrix(1.3333333,0,0,-1.3333333,200.17355,138.03168)"
       clip-path="url(#clipPath21)" /><path
       id="path22"
       d="M 0,0 C 0,0 3.94,0.358 5.36,1.029 L 2.591,0.901 Z"
       style="fill:#ccaa97;fill-opacity:1;fill-rule:nonzero;stroke:none"
       transform="matrix(1.3333333,0,0,-1.3333333,196.98195,138.73261)"
       clip-path="url(#clipPath23)" /><path
       id="path24"
       d="m 0,0 c 0.137,0.315 0.205,0.764 0.205,1.346 v 19.939 c 0,0.559 -0.068,1.007 -0.205,1.347 -0.092,0.17 -0.176,0.321 -0.256,0.455 -0.08,0.132 -0.177,0.248 -0.29,0.346 -0.273,0.194 -0.489,0.338 -0.649,0.436 -0.114,0.048 -0.216,0.085 -0.307,0.109 -0.09,0.024 -0.17,0.048 -0.238,0.073 h 14.374 c 1.049,0 1.899,-0.907 1.899,-2.026 v -3.396 c -0.068,0.146 -0.137,0.389 -0.205,0.729 -0.182,0.509 -0.455,1.091 -0.818,1.746 -0.364,0.606 -0.899,1.2 -1.604,1.783 -0.728,0.509 -1.637,0.764 -2.728,0.764 h -3.56 c -1.049,0 -1.9,-0.907 -1.9,-2.026 V 13.56 c 0,-1.119 0.851,-2.026 1.9,-2.026 h 0.488 c 0.888,0 1.638,0.074 2.252,0.218 0.66,0.146 1.16,0.341 1.501,0.583 0.342,0.194 0.649,0.436 0.921,0.727 0.114,0.122 0.211,0.242 0.291,0.364 0.079,0.122 0.141,0.243 0.188,0.364 0.045,0.121 0.078,0.224 0.102,0.31 0.021,0.084 0.045,0.164 0.068,0.236 V 8.332 c -0.023,0.073 -0.047,0.151 -0.068,0.236 -0.024,0.085 -0.057,0.188 -0.102,0.31 -0.092,0.218 -0.251,0.461 -0.479,0.729 -0.272,0.29 -0.579,0.533 -0.921,0.727 -0.182,0.12 -0.398,0.224 -0.648,0.309 -0.215,0.074 -0.456,0.15 -0.722,0.233 -0.084,0.026 -0.168,0.049 -0.253,0.068 -0.591,0.126 -1.3,0.19 -2.13,0.19 H 5.618 c -1.049,0 -1.9,-0.906 -1.9,-2.025 V 3.111"
       style="fill:#ccaa97;fill-opacity:1;fill-rule:nonzero;stroke:none"
       transform="matrix(1.3333333,0,0,-1.3333333,219.76835,154.26235)"
       clip-path="url(#clipPath25)" /><path
       id="path26"
       d="m 0,0 c 0,0 11.113,-0.454 14.201,0.327 0,0 4.262,0.32 6.729,6.715 0,0 -2.059,-3.764 -7.524,-3.971 L 7.192,3.244 c 0,0 -1.707,0.29 -2.851,-1.147 C 4.341,2.097 1.849,0.57 0,0"
       style="fill:#ccaa97;fill-opacity:1;fill-rule:nonzero;stroke:none"
       transform="matrix(1.3333333,0,0,-1.3333333,85.049947,154.03675)"
       clip-path="url(#clipPath27)" /><path
       id="path28"
       d="m 0,0 c 0,0 3.736,0.63 5.379,-2.309 0,0 3.23,-4.806 7.595,-8.586 3.751,-3.248 12.24,-4.024 15.668,-3.919 0,0 -5.492,-0.681 -11.547,0.56 C 11.039,-13.014 4.509,-7.467 0,0"
       style="fill:#ccaa97;fill-opacity:1;fill-rule:nonzero;stroke:none"
       transform="matrix(1.3333333,0,0,-1.3333333,197.33168,138.80808)"
       clip-path="url(#clipPath29)" /><path
       id="path30"
       d="M 0,0 C -0.233,-0.291 -0.657,-0.339 -0.949,-0.106 -1.24,0.127 -1.287,0.552 -1.055,0.843 -0.822,1.134 0.364,1.537 0.227,1.366 -0.014,1.063 0.233,0.291 0,0"
       style="fill:#ccaa97;fill-opacity:1;fill-rule:nonzero;stroke:none"
       transform="matrix(1.3333333,0,0,-1.3333333,233.69395,149.30821)"
       clip-path="url(#clipPath31)" /><path
       id="path32"
       d="m 0,0 c 0,0 4.619,-2.35 13.157,-2.359 0,0 7.154,0.04 6.105,5.722 0,0 -0.892,4.484 -6.387,2.63"
       style="fill:none;stroke:#ccaa97;stroke-width:0.103;stroke-linecap:butt;stroke-linejoin:miter;stroke-miterlimit:10;stroke-dasharray:none;stroke-opacity:1"
       transform="matrix(1.3333333,0,0,-1.3333333,216.66501,155.49755)"
       clip-path="url(#clipPath33)" /><path
       id="path34"
       d="m 0,0 c 0,0 -0.981,-1 -1.315,-1.488 l -2.963,-7.191 1.227,-1.427 z"
       style="fill:#1e3557;fill-opacity:1;fill-rule:nonzero;stroke:none"
       transform="matrix(1.3333333,0,0,-1.3333333,114.92088,141.72555)"
       clip-path="url(#clipPath35)" /><path
       id="path36"
       d="m 0,0 c 0,0 1.603,-2.275 7.634,9.557 0,0 3.567,7.186 7.929,0.151 0,0 3.419,-6.072 6.813,0.759 0,0 5.137,12.288 10.163,-0.114 0,0 5.026,-12.411 5.919,-10.529"
       style="fill:none;stroke:#ccaa97;stroke-width:0.103;stroke-linecap:butt;stroke-linejoin:miter;stroke-miterlimit:10;stroke-dasharray:none;stroke-opacity:1"
       transform="matrix(1.3333333,0,0,-1.3333333,138.13621,81.027813)"
       clip-path="url(#clipPath37)" /><path
       id="path38"
       d="M 0,0 C 0,0 14.786,16.079 24.308,12.796"
       style="fill:none;stroke:#ccaa97;stroke-width:0.103;stroke-linecap:butt;stroke-linejoin:miter;stroke-miterlimit:10;stroke-dasharray:none;stroke-opacity:1"
       transform="matrix(1.3333333,0,0,-1.3333333,157.04421,107.92555)"
       clip-path="url(#clipPath39)" /><path
       id="path40"
       d="m 0,0 c 0,-1.566 -1.246,-2.835 -2.783,-2.835 -1.537,0 -2.782,1.269 -2.782,2.835 0,1.566 1.245,2.835 2.782,2.835 C -1.246,2.835 0,1.566 0,0 Z"
       style="fill:none;stroke:#ccaa97;stroke-width:0.103;stroke-linecap:butt;stroke-linejoin:miter;stroke-miterlimit:10;stroke-dasharray:none;stroke-opacity:1"
       transform="matrix(1.3333333,0,0,-1.3333333,163.76875,53.497813)"
       clip-path="url(#clipPath41)" /><path
       id="path42"
       d="m 0,0 h -10.363 c -7.726,0 -14.048,6.321 -14.048,14.048 v 23.228 c 0,7.726 6.322,14.047 14.048,14.047 H 0 c 7.726,0 14.048,-6.321 14.048,-14.047 V 14.048 C 14.048,6.321 7.726,0 0,0 Z"
       style="fill:none;stroke:#ccaa97;stroke-width:0.103;stroke-linecap:butt;stroke-linejoin:miter;stroke-miterlimit:10;stroke-dasharray:none;stroke-opacity:1"
       transform="matrix(1.3333333,0,0,-1.3333333,170.68368,107.92555)"
       clip-path="url(#clipPath43)" /><path
       id="path44"
       d="M 0,0 C 0,0 2.662,-0.294 4.113,0.235 4.113,0.235 1.788,1.693 0,0"
       style="fill:#ccaa97;fill-opacity:1;fill-rule:nonzero;stroke:#ccaa97;stroke-width:0.103;stroke-linecap:butt;stroke-linejoin:miter;stroke-miterlimit:10;stroke-dasharray:none;stroke-opacity:1"
       transform="matrix(1.3333333,0,0,-1.3333333,152.80128,94.30248)"
       clip-path="url(#clipPath45)" /><path
       id="path46"
       d="M 0,0 6.007,-3.319"
       style="fill:none;stroke:#ccaa97;stroke-width:0.103;stroke-linecap:butt;stroke-linejoin:miter;stroke-miterlimit:10;stroke-dasharray:none;stroke-opacity:1"
       transform="matrix(1.3333333,0,0,-1.3333333,146.41475,89.923013)"
       clip-path="url(#clipPath47)" /><path
       id="path48"
       d="M 0,0 V -7.381"
       style="fill:none;stroke:#ccaa97;stroke-width:0.103;stroke-linecap:butt;stroke-linejoin:miter;stroke-miterlimit:10;stroke-dasharray:none;stroke-opacity:1"
       transform="matrix(1.3333333,0,0,-1.3333333,155.31048,83.76088)"
       clip-path="url(#clipPath49)" /><path
       id="path50"
       d="M 0,0 -3.76,-6.1"
       style="fill:none;stroke:#ccaa97;stroke-width:0.103;stroke-linecap:butt;stroke-linejoin:miter;stroke-miterlimit:10;stroke-dasharray:none;stroke-opacity:1"
       transform="matrix(1.3333333,0,0,-1.3333333,160.79221,85.776747)"
       clip-path="url(#clipPath51)" /><path
       id="path52"
       d="M 0,0 3.701,-6.1"
       style="fill:none;stroke:#ccaa97;stroke-width:0.103;stroke-linecap:butt;stroke-linejoin:miter;stroke-miterlimit:10;stroke-dasharray:none;stroke-opacity:1"
       transform="matrix(1.3333333,0,0,-1.3333333,149.80315,85.776747)"
       clip-path="url(#clipPath53)" /><path
       id="path54"
       d="M 0,0 -5.432,-3.195"
       style="fill:none;stroke:#ccaa97;stroke-width:0.103;stroke-linecap:butt;stroke-linejoin:miter;stroke-miterlimit:10;stroke-dasharray:none;stroke-opacity:1"
       transform="matrix(1.3333333,0,0,-1.3333333,163.67941,89.807413)"
       clip-path="url(#clipPath55)" /><path
       id="path56"
       d="m 0,0 c 2.927,0.315 7.737,-1.477 7.737,-1.477 0,0 3.86,-1.584 7.375,-0.569 0,0 4.376,0.343 12.797,6.719 3.526,2.67 10.58,0.49 10.58,0.49"
       style="fill:none;stroke:#ccaa97;stroke-width:0.103;stroke-linecap:butt;stroke-linejoin:miter;stroke-miterlimit:10;stroke-dasharray:none;stroke-opacity:1"
       transform="matrix(1.3333333,0,0,-1.3333333,138.13621,91.26968)"
       clip-path="url(#clipPath57)" /><path
       id="path58"
       d="M 0,0 C 0.744,0.641 1.535,1.554 1.559,2.558 V 9.773 H -5.016 V 2.522 c 0,0 0.184,-1.829 2.807,-3.426"
       style="fill:none;stroke:#ccaa97;stroke-width:0.076;stroke-linecap:butt;stroke-linejoin:miter;stroke-miterlimit:10;stroke-dasharray:none;stroke-opacity:1"
       transform="matrix(1.3333333,0,0,-1.3333333,177.35768,84.57048)"
       clip-path="url(#clipPath59)" /><path
       id="path60"
       d="m 0,0 0.095,-6.029 c 0,0 0.739,0.425 0.81,0.41 v 5.535 c 0,0 0.633,0.356 1.304,0.933"
       style="fill:none;stroke:#ccaa97;stroke-width:0.076;stroke-linecap:butt;stroke-linejoin:miter;stroke-miterlimit:10;stroke-dasharray:none;stroke-opacity:1"
       transform="matrix(1.3333333,0,0,-1.3333333,174.41221,85.70248)"
       clip-path="url(#clipPath61)" /><path
       id="path62"
       d="m 0,0 0.319,-0.723 2.36,1.537 c 0,0 0.156,0.089 0.511,0.537 z"
       style="fill:#1e3557;fill-opacity:1;fill-rule:nonzero;stroke:none"
       transform="matrix(1.3333333,0,0,-1.3333333,174.19168,85.189947)"
       clip-path="url(#clipPath63)" /><path
       id="path64"
       d="M 0,0 C 0,0 0.035,-0.057 0.235,-0.171 L 0.15,0.411 Z"
       style="fill:#1e3557;fill-opacity:1;fill-rule:nonzero;stroke:none"
       transform="matrix(1.3333333,0,0,-1.3333333,174.28141,85.61488)"
       clip-path="url(#clipPath65)" /></g></svg>
